<?xml version="1.0" encoding="UTF-8"?>
<svg id="_レイヤー_2" data-name="レイヤー 2" xmlns="http://www.w3.org/2000/svg" viewBox="0 0 255.05 255.05">
  <defs>
    <style>
      .cls-1 {
        fill: #fff;
      }

      .cls-2 {
        fill: #1d9bf0;
      }
    </style>
  </defs>
  <g id="_レイヤー_1-2" data-name="レイヤー 1">
    <g>
      <g>
        <rect x="2.5" y="2.5" width="250.05" height="250.05" rx="48.25" ry="48.25"/>
        <path class="cls-2" d="M204.3,5c25.23,0,45.75,20.52,45.75,45.75v153.55c0,25.23-20.52,45.75-45.75,45.75H50.75c-25.23,0-45.75-20.52-45.75-45.75V50.75C5,25.52,25.52,5,50.75,5h153.55M204.3,0H50.75C22.72,0,0,22.72,0,50.75v153.55c0,28.03,22.72,50.75,50.75,50.75h153.55c28.03,0,50.75-22.72,50.75-50.75V50.75c0-28.03-22.72-50.75-50.75-50.75h0Z"/>
      </g>
      <path class="cls-1" d="M141.04,116.41l52.88-61.47h-12.53l-45.92,53.37-36.67-53.37h-42.3l55.46,80.71-55.46,64.46h12.53l48.49-56.37,38.73,56.37h42.3l-57.52-83.7h0ZM123.87,136.36l-5.62-8.04-44.71-63.95h19.25l36.08,51.61,5.62,8.04,46.9,67.09h-19.25l-38.27-54.74h0Z"/>
    </g>
  </g>
</svg>