<?xml version="1.0" encoding="UTF-8"?>
<svg id="_レイヤー_2" data-name="レイヤー 2" xmlns="http://www.w3.org/2000/svg" viewBox="0 0 255.05 255.05">
  <defs>
    <style>
      .cls-1 {
        fill: #fff;
      }

      .cls-2 {
        fill: #1d9bf0;
      }
    </style>
  </defs>
  <g id="_レイヤー_1-2" data-name="レイヤー 1">
    <g>
      <rect class="cls-2" width="255.05" height="255.05" rx="50.75" ry="50.75"/>
      <g>
        <path class="cls-1" d="M39.83,113.53c-.39-.13-.77-.33-1.12-.59-.2-.13-.38-.29-.54-.49-.16-.2-.31-.41-.44-.63-.07-.06-.11-.14-.15-.22-.03-.08-.07-.17-.1-.27-.1-.2-.17-.42-.22-.68-.05-.26-.07-.5-.07-.73v-30.76c0-1.07.37-1.99,1.12-2.73s1.64-1.12,2.69-1.12,1.99.38,2.73,1.12c.75.75,1.12,1.66,1.12,2.73v16.21c0,.23.06.43.2.61.13.18.29.3.49.37.2.07.4.07.61,0,.21-.06.38-.2.51-.39l2.78-3.71c.23-.33.5-.6.81-.83.31-.23.64-.39,1-.49.2-.1.4-.16.61-.2.21-.03.43-.05.66-.05s.45.02.66.05c.21.03.42.1.61.2.36.1.69.26,1,.49.31.23.58.5.81.83l2.78,3.71c.13.2.3.33.51.39.21.07.42.07.61,0,.2-.06.36-.19.49-.37.13-.18.2-.38.2-.61v-16.21c0-1.07.37-1.99,1.12-2.73s1.66-1.12,2.73-1.12,1.94.38,2.69,1.12c.75.75,1.12,1.66,1.12,2.73v30.76c0,.23-.02.47-.07.73-.05.26-.12.49-.22.68-.03.1-.07.19-.1.27-.03.08-.08.16-.15.22-.13.23-.28.44-.44.63-.16.2-.34.36-.54.49-.36.26-.73.46-1.12.59-.39.13-.78.2-1.17.2-.29,0-.58-.03-.85-.1-.28-.06-.55-.15-.81-.24-.26-.13-.51-.29-.76-.49s-.46-.42-.66-.68l-.88-1.17c-.55-.75-1.23-1.65-2.03-2.71-.8-1.06-1.62-2.16-2.47-3.3-.85-1.14-1.55-2.07-2.1-2.78-.1-.16-.24-.28-.42-.37-.18-.08-.37-.12-.56-.12s-.38.04-.56.12c-.18.08-.32.2-.42.37-.55.72-1.25,1.64-2.1,2.78-.85,1.14-1.67,2.24-2.47,3.3-.8,1.06-1.47,1.96-2.03,2.71l-.88,1.17c-.2.26-.42.49-.66.68s-.5.36-.76.49c-.26.1-.53.18-.81.24-.28.07-.56.1-.85.1-.39,0-.78-.06-1.17-.2Z"/>
        <path class="cls-1" d="M87.19,90.63c0-2.12.41-4.1,1.22-5.96.78-1.86,1.87-3.47,3.27-4.86,1.4-1.38,3.03-2.48,4.88-3.3,1.86-.81,3.84-1.22,5.96-1.22s4.1.41,5.96,1.22c1.86.81,3.48,1.91,4.88,3.3,1.4,1.38,2.49,3,3.27,4.86.81,1.86,1.22,3.84,1.22,5.96v19.29c0,1.04-.38,1.94-1.12,2.69s-1.64,1.12-2.69,1.12-1.99-.37-2.73-1.12c-.75-.75-1.12-1.64-1.12-2.69v-19.29c0-2.12-.75-3.92-2.25-5.42-1.5-1.5-3.3-2.25-5.42-2.25-1.86,0-3.48.58-4.86,1.73-1.38,1.16-2.27,2.61-2.66,4.37-.1.62.11,1.04.61,1.27.5.23.95.34,1.34.34h6.54c1.04,0,1.94.38,2.69,1.12.75.75,1.12,1.66,1.12,2.73s-.38,1.94-1.12,2.69-1.64,1.12-2.69,1.12h-6.35c-.62,0-1.16.23-1.61.68s-.68.99-.68,1.61v9.28c0,1.04-.38,1.94-1.12,2.69s-1.66,1.12-2.73,1.12-1.94-.37-2.69-1.12c-.75-.75-1.12-1.64-1.12-2.69v-19.29Z"/>
        <path class="cls-1" d="M162.44,75.67c.98-.44,1.95-.48,2.93-.12.98.36,1.68,1.03,2.12,2s.48,1.95.12,2.93l-11.47,30.76c-.29.81-.8,1.44-1.51,1.88-.72.44-1.48.64-2.29.61-.75-.03-1.44-.27-2.08-.71s-1.08-1.03-1.34-1.78l-11.47-30.76c-.36-.98-.32-1.95.12-2.93s1.15-1.64,2.12-2c.98-.36,1.95-.32,2.93.12s1.64,1.15,2,2.12l6.35,17.14c.52,1.33,1.04,2,1.56,2s1.04-.67,1.56-2l6.35-17.14c.36-.98,1.03-1.68,2-2.12Z"/>
        <path class="cls-1" d="M188.31,76.42c.75-.75,1.64-1.12,2.69-1.12h23.05c1.04,0,1.94.38,2.69,1.12.75.75,1.12,1.66,1.12,2.73s-.38,1.94-1.12,2.69-1.64,1.12-2.69,1.12h-16.89c-.62,0-1.16.23-1.61.68s-.68.99-.68,1.61v18.51c0,.65.23,1.2.68,1.64.46.44.99.66,1.61.66h16.89c1.04,0,1.94.38,2.69,1.12.75.75,1.12,1.66,1.12,2.73s-.38,1.94-1.12,2.69-1.64,1.12-2.69,1.12h-23.05c-.55,0-1.07-.11-1.54-.34-.47-.23-.89-.52-1.25-.88-.33-.36-.58-.76-.76-1.2-.18-.44-.27-.9-.27-1.39v-30.76c0-1.07.37-1.99,1.12-2.73ZM206.38,98.45h-5.76c-1.07,0-1.99-.37-2.73-1.12-.75-.75-1.12-1.66-1.12-2.73s.37-1.94,1.12-2.69,1.66-1.12,2.73-1.12h5.76c1.04,0,1.94.38,2.69,1.12.75.75,1.12,1.64,1.12,2.69s-.38,1.99-1.12,2.73-1.64,1.12-2.69,1.12Z"/>
        <path class="cls-1" d="M38.41,146.42c.75-.75,1.66-1.12,2.73-1.12h15.09c1.59,0,3.09.31,4.49.93,1.4.59,2.62,1.4,3.66,2.44,1.04,1.04,1.86,2.26,2.44,3.66.62,1.4.93,2.9.93,4.49,0,1.21-.17,2.34-.51,3.42s-.82,2.07-1.44,2.98c-.26.39-.39.82-.39,1.29s.13.9.39,1.29c.62.91,1.1,1.91,1.44,3,.34,1.09.51,2.22.51,3.39,0,1.6-.29,3.09-.88,4.49-.62,1.37-1.44,2.57-2.47,3.61-1.03,1.04-2.24,1.87-3.64,2.49-1.4.62-2.88.93-4.44.93h-15.19c-.39,0-.77-.06-1.12-.17-.36-.11-.68-.27-.98-.46h-.05c-.52-.33-.94-.77-1.25-1.34-.31-.57-.46-1.18-.46-1.83v-30.76c0-1.07.37-1.99,1.12-2.73ZM58.97,159.56c.75-.75,1.12-1.66,1.12-2.73s-.38-1.94-1.12-2.71c-.75-.76-1.66-1.15-2.73-1.15h-8.98c-.29,0-.59.06-.88.17-.29.11-.54.29-.73.51-.23.23-.4.48-.51.76-.11.28-.17.56-.17.85v18.51c0,.65.23,1.2.68,1.64.46.44.99.66,1.61.66h8.98c1.07,0,1.99-.37,2.73-1.12s1.12-1.66,1.12-2.73-.38-1.99-1.12-2.73c-.75-.75-1.66-1.12-2.73-1.12s-1.99-.37-2.73-1.12c-.75-.75-1.12-1.64-1.12-2.69s.37-1.99,1.12-2.73,1.66-1.12,2.73-1.12,1.99-.37,2.73-1.12Z"/>
        <path class="cls-1" d="M95.05,182.22c-2.34-1.01-4.39-2.38-6.13-4.13-1.74-1.74-3.1-3.77-4.08-6.08-1.01-2.34-1.51-4.83-1.51-7.47s.5-5.16,1.51-7.47c.98-2.34,2.33-4.39,4.08-6.13s3.78-3.12,6.13-4.13c2.34-1.01,4.83-1.51,7.47-1.51s5.13.5,7.47,1.51c2.34,1.01,4.39,2.38,6.13,4.13,1.74,1.74,3.12,3.78,4.13,6.13.98,2.31,1.46,4.8,1.46,7.47s-.49,5.13-1.46,7.47c-1.01,2.31-2.38,4.34-4.13,6.08s-3.78,3.12-6.13,4.13c-2.34,1.01-4.83,1.51-7.47,1.51s-5.13-.5-7.47-1.51ZM107.02,175.23c1.43-.62,2.67-1.46,3.71-2.51,1.04-1.06,1.87-2.29,2.49-3.69.62-1.4.93-2.9.93-4.49s-.31-3.11-.93-4.54c-.62-1.4-1.45-2.63-2.49-3.69-1.04-1.06-2.28-1.88-3.71-2.47-1.4-.62-2.9-.93-4.49-.93s-3.09.31-4.49.93c-1.43.59-2.67,1.41-3.71,2.47-1.04,1.06-1.87,2.29-2.49,3.69-.62,1.43-.93,2.95-.93,4.54s.31,3.09.93,4.49c.62,1.4,1.45,2.63,2.49,3.69,1.04,1.06,2.28,1.9,3.71,2.51,1.4.59,2.9.88,4.49.88s3.09-.29,4.49-.88Z"/>
        <path class="cls-1" d="M151.5,156.34c.33.16.67.24,1.03.24s.7-.08,1.03-.24c.33-.16.6-.39.83-.68.62-.81,1.3-1.74,2.05-2.78.78-1.01,1.5-1.96,2.17-2.86.67-.89,1.23-1.65,1.68-2.27l.68-.88c.62-.85,1.46-1.35,2.51-1.51,1.06-.16,2.01.08,2.86.73.85.62,1.34,1.46,1.49,2.51.15,1.06-.11,2.01-.76,2.86l-.98,1.37c-.68.88-1.5,1.95-2.44,3.2-.94,1.25-1.9,2.55-2.88,3.88-1.01,1.33-1.82,2.41-2.44,3.22-.29.42-.44.89-.44,1.39s.15.97.44,1.39c.62.85,1.43,1.92,2.44,3.22.98,1.33,1.94,2.63,2.88,3.88.94,1.25,1.76,2.34,2.44,3.25l.98,1.37c.65.85.9,1.79.76,2.83-.15,1.04-.64,1.87-1.49,2.49-.85.65-1.8.9-2.86.76-1.06-.15-1.9-.64-2.51-1.49l-.68-.93c-.46-.62-1.02-1.38-1.68-2.27-.67-.89-1.39-1.85-2.17-2.86-.75-1.04-1.43-1.97-2.05-2.78-.23-.29-.5-.52-.83-.68-.33-.16-.67-.24-1.03-.24s-.7.08-1.03.24c-.33.16-.6.39-.83.68-.62.81-1.3,1.74-2.05,2.78-.78,1.01-1.51,1.96-2.17,2.86-.67.9-1.23,1.65-1.68,2.27l-.68.93c-.62.85-1.46,1.34-2.51,1.49-1.06.15-2.01-.11-2.86-.76-.85-.62-1.34-1.45-1.49-2.49-.15-1.04.11-1.99.76-2.83l.98-1.37c.68-.91,1.5-1.99,2.44-3.25.94-1.25,1.9-2.55,2.88-3.88,1.01-1.3,1.82-2.38,2.44-3.22.29-.42.44-.89.44-1.39s-.15-.97-.44-1.39c-.62-.81-1.43-1.89-2.44-3.22-.98-1.33-1.94-2.63-2.88-3.88-.94-1.25-1.76-2.32-2.44-3.2l-.98-1.37c-.65-.85-.9-1.8-.76-2.86.15-1.06.64-1.9,1.49-2.51.85-.65,1.8-.89,2.86-.73,1.06.16,1.9.67,2.51,1.51l.68.88c.46.62,1.02,1.38,1.68,2.27.67.9,1.39,1.85,2.17,2.86.75,1.04,1.43,1.97,2.05,2.78.23.29.5.52.83.68Z"/>
      </g>
    </g>
  </g>
</svg>