<?xml version="1.0" encoding="UTF-8"?>
<svg id="_レイヤー_2" data-name="レイヤー 2" xmlns="http://www.w3.org/2000/svg" viewBox="0 0 546.92 255.05">
  <defs>
    <style>
      .cls-1 {
        fill: #fff;
      }

      .cls-2 {
        fill: #1d9bf0;
      }
    </style>
  </defs>
  <g id="_レイヤー_1-2" data-name="レイヤー 1">
    <g>
      <g>
        <rect x="2.5" y="2.5" width="541.92" height="250.05" rx="48.25" ry="48.25"/>
        <path class="cls-2" d="M496.17,5c25.23,0,45.75,20.52,45.75,45.75v153.55c0,25.23-20.52,45.75-45.75,45.75H50.75c-25.23,0-45.75-20.52-45.75-45.75V50.75C5,25.52,25.52,5,50.75,5h445.42M496.17,0H50.75C22.72,0,0,22.72,0,50.75v153.55c0,28.03,22.72,50.75,50.75,50.75h445.42c28.03,0,50.75-22.72,50.75-50.75V50.75c0-28.03-22.72-50.75-50.75-50.75h0Z"/>
      </g>
      <g>
        <path class="cls-1" d="M67.21,94.84c1.35-1.35,3-2.03,4.94-2.03h27.26c2.88,0,5.59.56,8.12,1.68,2.53,1.06,4.73,2.53,6.62,4.41,1.88,1.88,3.35,4.09,4.41,6.62,1.12,2.53,1.68,5.24,1.68,8.12,0,2.18-.31,4.23-.93,6.17-.62,1.94-1.49,3.74-2.6,5.38-.47.71-.71,1.49-.71,2.34s.23,1.63.71,2.34c1.12,1.65,1.98,3.46,2.6,5.42.62,1.97.93,4.01.93,6.13,0,2.88-.53,5.59-1.59,8.12-1.12,2.47-2.6,4.65-4.46,6.53-1.85,1.88-4.04,3.38-6.57,4.5-2.53,1.12-5.21,1.68-8.03,1.68h-27.43c-.71,0-1.38-.1-2.03-.31-.65-.21-1.24-.49-1.76-.84h-.09c-.94-.59-1.69-1.4-2.25-2.43-.56-1.03-.84-2.13-.84-3.31v-55.58c0-1.94.68-3.59,2.03-4.94ZM104.35,118.57c1.35-1.35,2.03-3,2.03-4.94s-.68-3.51-2.03-4.9c-1.35-1.38-3-2.07-4.94-2.07h-16.23c-.53,0-1.06.1-1.59.31-.53.21-.97.52-1.32.93-.41.41-.72.87-.93,1.37-.21.5-.31,1.01-.31,1.54v33.43c0,1.18.41,2.16,1.24,2.96.82.79,1.79,1.19,2.91,1.19h16.23c1.94,0,3.59-.67,4.94-2.03s2.03-3,2.03-4.94-.68-3.59-2.03-4.94c-1.35-1.35-3-2.03-4.94-2.03s-3.59-.68-4.94-2.03c-1.35-1.35-2.03-2.97-2.03-4.85s.67-3.59,2.03-4.94,3-2.03,4.94-2.03,3.59-.68,4.94-2.03Z"/>
        <path class="cls-1" d="M169.54,159.5c-4.23-1.82-7.93-4.31-11.07-7.45-3.15-3.15-5.6-6.81-7.37-10.98-1.82-4.23-2.74-8.73-2.74-13.5s.91-9.32,2.74-13.5c1.76-4.23,4.22-7.92,7.37-11.07s6.84-5.63,11.07-7.45c4.23-1.82,8.73-2.73,13.5-2.73s9.26.91,13.5,2.73c4.23,1.82,7.92,4.31,11.07,7.45,3.15,3.15,5.63,6.84,7.45,11.07,1.76,4.18,2.65,8.68,2.65,13.5s-.88,9.26-2.65,13.5c-1.82,4.18-4.31,7.84-7.45,10.98-3.15,3.15-6.84,5.63-11.07,7.45-4.23,1.82-8.73,2.73-13.5,2.73s-9.26-.91-13.5-2.73ZM191.16,146.89c2.59-1.12,4.82-2.63,6.7-4.54,1.88-1.91,3.38-4.13,4.5-6.66,1.12-2.53,1.68-5.23,1.68-8.12s-.56-5.62-1.68-8.2c-1.12-2.53-2.62-4.75-4.5-6.66-1.88-1.91-4.12-3.4-6.7-4.45-2.53-1.12-5.24-1.68-8.12-1.68s-5.59.56-8.12,1.68c-2.59,1.06-4.82,2.54-6.7,4.45-1.88,1.91-3.38,4.13-4.5,6.66-1.12,2.59-1.68,5.32-1.68,8.2s.56,5.59,1.68,8.12c1.12,2.53,2.62,4.75,4.5,6.66,1.88,1.91,4.12,3.43,6.7,4.54,2.53,1.06,5.23,1.59,8.12,1.59s5.59-.53,8.12-1.59Z"/>
        <path class="cls-1" d="M259.87,159.5c-4.23-1.82-7.93-4.31-11.07-7.45-3.15-3.15-5.6-6.81-7.37-10.98-1.82-4.23-2.74-8.73-2.74-13.5s.91-9.32,2.74-13.5c1.76-4.23,4.22-7.92,7.37-11.07s6.84-5.63,11.07-7.45c4.23-1.82,8.73-2.73,13.5-2.73s9.26.91,13.5,2.73c4.23,1.82,7.92,4.31,11.07,7.45,3.15,3.15,5.63,6.84,7.45,11.07,1.76,4.18,2.65,8.68,2.65,13.5s-.88,9.26-2.65,13.5c-1.82,4.18-4.31,7.84-7.45,10.98-3.15,3.15-6.84,5.63-11.07,7.45-4.23,1.82-8.73,2.73-13.5,2.73s-9.26-.91-13.5-2.73ZM281.49,146.89c2.59-1.12,4.82-2.63,6.7-4.54,1.88-1.91,3.38-4.13,4.5-6.66,1.12-2.53,1.68-5.23,1.68-8.12s-.56-5.62-1.68-8.2c-1.12-2.53-2.62-4.75-4.5-6.66-1.88-1.91-4.12-3.4-6.7-4.45-2.53-1.12-5.24-1.68-8.12-1.68s-5.59.56-8.12,1.68c-2.59,1.06-4.82,2.54-6.7,4.45-1.88,1.91-3.38,4.13-4.5,6.66-1.12,2.59-1.68,5.32-1.68,8.2s.56,5.59,1.68,8.12c1.12,2.53,2.62,4.75,4.5,6.66,1.88,1.91,4.12,3.43,6.7,4.54,2.53,1.06,5.23,1.59,8.12,1.59s5.59-.53,8.12-1.59Z"/>
        <path class="cls-1" d="M352.85,106.66h-9.97c-1.88,0-3.5-.68-4.85-2.03-1.35-1.35-2.03-2.97-2.03-4.85s.67-3.59,2.03-4.94c1.35-1.35,2.97-2.03,4.85-2.03h41.64c1.88,0,3.5.68,4.85,2.03,1.35,1.35,2.03,3,2.03,4.94s-.68,3.5-2.03,4.85-2.97,2.03-4.85,2.03h-9.44c-.59,0-1.13.1-1.63.31-.5.21-.96.52-1.37.93-.35.41-.65.87-.88,1.37-.24.5-.35,1.01-.35,1.54v44.55c0,1.88-.68,3.5-2.03,4.85-1.35,1.35-2.97,2.03-4.85,2.03s-3.59-.67-4.94-2.03c-1.35-1.35-2.03-2.97-2.03-4.85v-44.55c0-1.12-.4-2.09-1.19-2.91-.79-.82-1.78-1.23-2.96-1.23Z"/>
        <path class="cls-1" d="M428.36,94.84c1.35-1.35,2.97-2.03,4.85-2.03s3.59.68,4.94,2.03c1.35,1.35,2.03,3,2.03,4.94v16.67c0,1.18.41,2.16,1.23,2.96.82.79,1.79,1.19,2.91,1.19h11.47c1.88,0,3.5.68,4.85,2.03,1.35,1.35,2.03,3,2.03,4.94s-.68,3.5-2.03,4.85c-1.35,1.35-2.97,2.03-4.85,2.03h-11.47c-1.12,0-2.09.41-2.91,1.24s-1.23,1.79-1.23,2.91v16.76c0,1.88-.68,3.5-2.03,4.85s-3,2.03-4.94,2.03-3.5-.67-4.85-2.03c-1.35-1.35-2.03-2.97-2.03-4.85v-55.58c0-1.94.67-3.59,2.03-4.94ZM481.73,99.78v55.58c0,1.88-.68,3.5-2.03,4.85s-2.97,2.03-4.85,2.03-3.59-.67-4.94-2.03c-1.35-1.35-2.03-2.97-2.03-4.85v-55.58c0-1.94.67-3.59,2.03-4.94,1.35-1.35,3-2.03,4.94-2.03s3.5.68,4.85,2.03c1.35,1.35,2.03,3,2.03,4.94Z"/>
      </g>
    </g>
  </g>
</svg>