<?xml version="1.0" encoding="UTF-8"?>
<svg id="_レイヤー_2" data-name="レイヤー 2" xmlns="http://www.w3.org/2000/svg" viewBox="0 0 546.92 255.05">
  <defs>
    <style>
      .cls-1 {
        fill: #fff;
      }

      .cls-2 {
        fill: #1d9bf0;
      }
    </style>
  </defs>
  <g id="_レイヤー_1-2" data-name="レイヤー 1">
    <g>
      <g>
        <rect x="2.5" y="2.5" width="541.92" height="250.05" rx="48.25" ry="48.25"/>
        <path class="cls-2" d="M496.17,5c25.23,0,45.75,20.52,45.75,45.75v153.55c0,25.23-20.52,45.75-45.75,45.75H50.75c-25.23,0-45.75-20.52-45.75-45.75V50.75C5,25.52,25.52,5,50.75,5h445.42M496.17,0H50.75C22.72,0,0,22.72,0,50.75v153.55c0,28.03,22.72,50.75,50.75,50.75h445.42c28.03,0,50.75-22.72,50.75-50.75V50.75c0-28.03-22.72-50.75-50.75-50.75h0Z"/>
      </g>
      <g>
        <path class="cls-1" d="M86.27,92.81h27.35c1.88,0,3.5.68,4.85,2.03,1.35,1.35,2.03,3,2.03,4.94s-.68,3.5-2.03,4.85-2.97,2.03-4.85,2.03h-27.7c-1.94,0-3.59.69-4.94,2.07-1.35,1.38-2.03,3.01-2.03,4.9s.67,3.59,2.03,4.94c1.35,1.35,3,2.03,4.94,2.03h14.82c2.76.18,5.35.82,7.76,1.94,2.35,1.12,4.42,2.62,6.22,4.5,1.79,1.88,3.22,4.06,4.28,6.53,1,2.47,1.5,5.09,1.5,7.85s-.5,5.38-1.5,7.85c-1,2.41-2.38,4.56-4.15,6.44-1.76,1.88-3.82,3.38-6.17,4.5-2.41,1.18-4.97,1.85-7.67,2.03h-29.02c-1.88,0-3.5-.67-4.85-2.03-1.35-1.35-2.03-2.97-2.03-4.85s.67-3.59,2.03-4.94,2.97-2.03,4.85-2.03h27.7c1.94,0,3.59-.67,4.94-2.03s2.03-3,2.03-4.94-.68-3.59-2.03-4.94c-1.35-1.35-3-2.03-4.94-2.03h-14.29c-2.82-.06-5.47-.65-7.94-1.76-2.47-1.12-4.62-2.62-6.44-4.5-1.82-1.88-3.26-4.06-4.32-6.53-1.06-2.53-1.59-5.21-1.59-8.03s.56-5.59,1.68-8.12c1.06-2.53,2.53-4.73,4.41-6.62s4.09-3.35,6.62-4.41c2.53-1.12,5.23-1.68,8.12-1.68v.09c.12-.06.23-.09.35-.09Z"/>
        <path class="cls-1" d="M169.5,116.5c.15.21.34.37.57.48.23.12.48.16.75.13.26-.03.49-.1.66-.22,1.76-1.41,4.23-3.38,7.41-5.91,3.12-2.53,6.22-5.03,9.31-7.5,3.09-2.47,5.75-4.62,7.98-6.44l3.44-2.74c1.47-1.18,3.16-1.66,5.07-1.46,1.91.21,3.45,1.04,4.63,2.51,1.18,1.53,1.66,3.24,1.46,5.12-.21,1.88-1.04,3.44-2.51,4.68l-3.09,2.47c-2.12,1.65-4.57,3.6-7.37,5.87-2.79,2.26-5.63,4.54-8.51,6.84-2.88,2.35-5.15,4.18-6.79,5.47-.29.24-.52.5-.66.79-.15.29-.22.62-.22.97,0,.29.07.6.22.93.15.32.37.57.66.75,1.65,1.29,3.91,3.12,6.79,5.47,2.88,2.29,5.72,4.57,8.51,6.84,2.79,2.26,5.25,4.22,7.37,5.87l3.09,2.47c1.47,1.24,2.31,2.79,2.51,4.68.21,1.88-.28,3.59-1.46,5.12-1.18,1.47-2.72,2.31-4.63,2.51-1.91.21-3.6-.28-5.07-1.46l-3.44-2.74c-2.24-1.82-4.9-3.97-7.98-6.44-3.09-2.47-6.19-4.97-9.31-7.5-3.18-2.47-5.65-4.41-7.41-5.82-.18-.18-.4-.28-.66-.31-.26-.03-.51.02-.75.13s-.43.28-.57.48c-.15.21-.22.46-.22.75v16.06c0,1.88-.68,3.5-2.03,4.85s-2.97,2.03-4.85,2.03h-.09c-1.88,0-3.5-.67-4.85-2.03-1.35-1.35-2.03-2.97-2.03-4.85v-55.58c0-1.94.67-3.59,2.03-4.94,1.35-1.35,2.97-2.03,4.85-2.03h.09c1.88,0,3.5.68,4.85,2.03,1.35,1.35,2.03,3,2.03,4.94v15.97c0,.29.07.54.22.75Z"/>
        <path class="cls-1" d="M280.43,155.36c0,1.88-.69,3.5-2.07,4.85-1.38,1.35-3.01,2.03-4.9,2.03s-3.59-.67-4.94-2.03c-1.35-1.35-2.03-2.97-2.03-4.85v-55.58c0-1.94.68-3.59,2.03-4.94,1.35-1.35,3-2.03,4.94-2.03s3.51.68,4.9,2.03c1.38,1.35,2.07,3,2.07,4.94v55.58Z"/>
        <path class="cls-1" d="M386.72,93.16c.71.24,1.38.59,2.03,1.06.35.29.68.6.97.93.29.32.56.69.79,1.1.12.12.21.25.26.4.06.15.12.31.18.49.18.41.31.84.4,1.28.09.44.13.9.13,1.37v55.49c0,1.94-.68,3.59-2.03,4.94s-2.97,2.03-4.85,2.03-3.59-.67-4.94-2.03c-1.35-1.35-2.03-3-2.03-4.94v-29.29c0-.41-.12-.76-.35-1.06-.24-.29-.53-.5-.88-.62-.35-.12-.72-.13-1.1-.04-.38.09-.69.31-.93.66l-5.03,6.7c-.41.59-.9,1.09-1.46,1.5-.56.41-1.16.74-1.81.97-.35.12-.72.21-1.1.26-.38.06-.78.09-1.19.09s-.81-.03-1.19-.09c-.38-.06-.75-.15-1.1-.26-.65-.23-1.25-.56-1.81-.97-.56-.41-1.04-.91-1.46-1.5l-5.03-6.7c-.24-.35-.54-.57-.93-.66-.38-.09-.75-.07-1.1.04-.35.12-.65.32-.88.62-.24.29-.35.65-.35,1.06v29.29c0,1.94-.68,3.59-2.03,4.94s-3,2.03-4.94,2.03-3.5-.67-4.85-2.03c-1.35-1.35-2.03-3-2.03-4.94v-55.49c0-.47.04-.93.13-1.37.09-.44.22-.87.4-1.28.06-.18.12-.34.18-.49.06-.15.15-.28.26-.4.23-.41.5-.78.79-1.1.29-.32.62-.63.97-.93.65-.47,1.32-.82,2.03-1.06.71-.23,1.41-.35,2.12-.35.53,0,1.04.06,1.54.18.5.12.98.29,1.46.53.47.18.93.46,1.37.84.44.38.84.81,1.19,1.28l1.59,2.03c1,1.35,2.22,2.99,3.66,4.9,1.44,1.91,2.92,3.9,4.46,5.96,1.53,2.06,2.79,3.76,3.79,5.12.18.24.43.44.75.62.32.18.66.26,1.01.26s.69-.09,1.01-.26.57-.38.75-.62c1-1.35,2.26-3.06,3.79-5.12s3.01-4.04,4.46-5.96c1.44-1.91,2.66-3.54,3.66-4.9l1.59-2.03c.35-.47.75-.9,1.19-1.28.44-.38.9-.66,1.37-.84.47-.23.96-.41,1.46-.53.5-.12,1.01-.18,1.54-.18.71,0,1.41.12,2.12.35Z"/>
        <path class="cls-1" d="M426.42,120.51c0-3.82.73-7.41,2.21-10.76,1.41-3.35,3.38-6.28,5.91-8.78,2.53-2.5,5.47-4.48,8.82-5.95,3.35-1.47,6.94-2.21,10.76-2.21s7.41.74,10.76,2.21c3.35,1.47,6.29,3.46,8.82,5.95,2.53,2.5,4.5,5.43,5.91,8.78,1.47,3.35,2.21,6.94,2.21,10.76v34.84c0,1.88-.68,3.5-2.03,4.85s-2.97,2.03-4.85,2.03-3.59-.67-4.94-2.03c-1.35-1.35-2.03-2.97-2.03-4.85v-34.84c0-3.82-1.35-7.09-4.06-9.79-2.71-2.7-5.97-4.06-9.79-4.06-3.35,0-6.28,1.04-8.78,3.13-2.5,2.09-4.1,4.72-4.81,7.9-.18,1.12.19,1.88,1.1,2.29.91.41,1.72.62,2.43.62h11.82c1.88,0,3.5.68,4.85,2.03,1.35,1.35,2.03,3,2.03,4.94s-.68,3.5-2.03,4.85c-1.35,1.35-2.97,2.03-4.85,2.03h-11.47c-1.12,0-2.09.41-2.91,1.24s-1.23,1.79-1.23,2.91v16.76c0,1.88-.68,3.5-2.03,4.85s-3,2.03-4.94,2.03-3.5-.67-4.85-2.03c-1.35-1.35-2.03-2.97-2.03-4.85v-34.84Z"/>
      </g>
    </g>
  </g>
</svg>